Coordinates
version=1
nRows=8
nColumns=36
inDegrees=yes

Units are S.I. units (second, meters, Newtons, ...)
If the header above contains a line with 'inDegrees', this indicates whether rotational values are in degrees (yes) or radians (no).

endheader
time	pelvis_tilt	pelvis_list	pelvis_rotation	pelvis_tx	pelvis_ty	pelvis_tz	hip_flexion_r	hip_adduction_r	hip_rotation_r	knee_angle_r	knee_angle_r_beta	ankle_angle_r	subtalar_angle_r	mtp_angle_r	hip_flexion_l	hip_adduction_l	hip_rotation_l	knee_angle_l	knee_angle_l_beta	ankle_angle_l	subtalar_angle_l	mtp_angle_l	lumbar_extension	lumbar_bending	lumbar_rotation	arm_flex_r	arm_add_r	arm_rot_r	elbow_flex_r	pro_sup_r	arm_flex_l	arm_add_l	arm_rot_l	elbow_flex_l	pro_sup_l
      0.00000000	      1.63409284	      0.73636539	     -6.63853918	      0.62558360	      0.90536769	      0.76804318	    -13.64824273	      1.35793292	      5.07934349	      9.33969467	      0.16300842	     11.00750217	     -4.92388117	     -7.06286989	     23.38344300	     -0.80234250	     -0.62767438	     18.91598219	      0.33014617	      4.43716905	     -6.54165789	     -7.06286989	     -7.95575828	     -0.40069086	      7.84559419	      9.07633265	    -13.89961807	      0.10435147	     34.73223792	     85.94049971	      2.51185618	     -9.17086745	      3.79626319	     18.62859267	     83.15348094
      0.01666670	      3.17202994	      0.72363217	     -6.59083868	      0.62553729	      0.90661456	      0.76634435	    -14.93412120	      1.11308741	      5.60762276	     11.48655176	      0.20047815	     11.91822958	     -5.75897875	     -7.07915656	     21.05351970	     -0.23465125	     -0.43542370	     18.60432876	      0.32470679	      3.39586141	     -7.74475711	     -7.07915656	    -10.01813869	     -0.67222508	      6.90154424	      9.44895705	    -13.48930976	     -0.52683522	     35.83188241	     86.52190578	      2.58730004	     -9.70308456	      5.39675659	     19.78681834	     84.71085101
      0.03333330	      3.74808727	      1.17102448	     -6.71746944	      0.62743240	      0.90792975	      0.76314671	    -14.82050152	      0.30838925	      5.31820688	     14.52263229	      0.25346775	     11.49151128	     -6.83794338	     -7.23860553	     19.60905460	      0.70081268	     -0.07241401	     18.29069014	      0.31923277	      1.39509834	     -8.88359942	     -7.23860553	    -10.45876231	     -1.11706398	      7.03687072	      9.03405946	    -12.97177334	     -3.10712206	     35.10066996	     91.74067061	      3.35824101	    -10.33047413	      8.41910476	     19.12178254	     92.15863628
      0.05000000	      4.35929756	      1.44333590	     -6.53147695	      0.63207403	      0.90744829	      0.75842481	    -14.30870485	     -0.43610585	      4.43603420	     18.48294654	      0.32258827	     10.25488090	     -7.78926576	     -7.26793035	     18.33066717	      1.42262184	      0.14469096	     18.51837846	      0.32320668	      0.42713833	     -9.95334729	     -7.26793035	    -10.89191120	     -1.35560617	      6.11394278	      9.25198633	    -12.59619276	     -3.30877760	     33.09296937	     90.77472952	      3.28288748	    -10.67259942	      9.13929766	     19.12477616	     91.43394548
      0.06666670	      4.59351622	      1.53898807	     -6.34831725	      0.63792403	      0.90815975	      0.75363279	    -13.15300399	     -0.93149566	      3.89707001	     22.75714173	      0.39718705	      7.78748835	     -9.40318271	     -7.28466205	     17.37740690	      1.89712266	      0.10580770	     19.03528670	      0.33222843	      0.57806161	    -10.22865406	     -7.28466205	    -10.83830883	     -1.46871444	      5.25086388	      9.40386897	    -12.24519670	     -3.76499236	     30.13204470	     91.41848211	      2.80801124	    -10.89661206	     10.11568473	     19.13389007	     92.42284055
      0.08333330	      4.78619321	      1.78877869	     -6.32730132	      0.64272521	      0.90708497	      0.74984721	    -11.60549279	     -1.71670162	      3.39507466	     27.38225272	      0.47791047	      4.94342347	    -10.90966584	     -7.32508796	     16.35945649	      2.45523445	      0.03827712	     19.61048226	      0.34226748	      0.91407149	    -10.54956988	     -7.32508796	    -10.79409198	     -1.75531397	      4.78608847	      9.19940470	    -12.01948155	     -4.24268884	     27.43633109	     90.33057100	      2.50225104	    -10.92550897	     11.03119325	     18.93334140	     91.63610299
      0.10000000	      4.88107584	      2.11270523	     -6.49486828	      0.64454468	      0.90207383	      0.74786235	     -9.50463125	     -2.59412883	      3.11711815	     32.69529341	      0.57064052	      1.60440807	    -12.35115671	     -7.33073720	     15.27727464	      3.02803413	     -0.05372754	     20.02914527	      0.34957453	      1.37285859	    -11.10408517	     -7.33073720	    -10.80114317	     -2.20403096	      4.64285924	      8.37301930	    -11.95231973	     -4.58842083	     26.12647889	     90.54071978	      2.09596362	    -10.98349145	     11.25168327	     19.33880345	     91.96951919
      0.11666670	      4.65523795	      2.26090793	     -6.60670143	      0.64377863	      0.89621993	      0.74723053	     -6.58613025	     -3.11933690	      3.09212158	     38.86276232	      0.67828316	     -3.18830499	    -14.09583058	     -7.39240582	     14.58031142	      3.39465587	      0.06726644	     20.60893787	      0.35969382	      2.14460597	    -11.83009709	     -7.39240582	    -10.44006747	     -2.38896409	      4.34015043	      7.92140089	    -11.52920014	     -6.89532899	     23.91274208	     95.31749890	      1.65866199	    -11.07853555	     10.69997004	     19.89343101	     96.81132206
